<?xml version="1.0" encoding="UTF-8"?>
<svg id="Layer_1" data-name="Layer 1" xmlns="http://www.w3.org/2000/svg" viewBox="0 0 707.21 310.7">
  <defs>
    <style>
      .cls-1 {
        stroke: #ee3324;
        stroke-linecap: square;
        stroke-miterlimit: 10;
        stroke-width: 9px;
      }

      .cls-1, .cls-2 {
        fill: #fff;
      }

      .cls-3 {
        fill: #16a067;
        stroke: #16a067;
        stroke-width: 6px;
      }

      .cls-4 {
        stroke-dasharray: 12 7;
      }

      .cls-4, .cls-5 {
        fill: none;
        stroke: #0b2b2b;
        stroke-linejoin: round;
        stroke-width: 11px;
      }

      .cls-5 {
        stroke-linecap: round;
      }

      .cls-6 {
        fill: #0b2b2b;
        font-family: HelveticaNeue-Bold, 'Helvetica Neue';
        font-size: 76px;
        font-weight: 700;
        isolation: isolate;
      }

      .cls-7 {
        fill: #c7c7c6;
      }
    </style>
  </defs>
  <rect class="cls-2" width="707.21" height="310.7"/>
  <g>
    <polygon class="cls-7" points="131.08 149.59 32.68 93.15 139.18 30.15 285.05 74.92 227.45 132.93 131.08 149.59"/>
    <path class="cls-4" d="M139.18,30.15c-.7,8.91-1.88,38.25,17.29,57.46,25.76,25.82,80.3,25.35,123.79-12.23"/>
    <text class="cls-6" transform="translate(322.5 92.87)"><tspan x="0" y="0">KG Model</tspan></text>
    <text class="cls-6" transform="translate(322.5 181.87)"><tspan x="0" y="0">Garbage</tspan></text>
    <text class="cls-6" transform="translate(322.5 270.87)"><tspan x="0" y="0">Collection</tspan></text>
    <path class="cls-5" d="M71.91,245.66l54.7-97.51,100.84-15.22,52.8-57.55"/>
    <path class="cls-5" d="M280.25,75.38L139.18,30.15l-106.5,63,93.94,55,67.83,129.56"/>
    <polyline class="cls-5" points="280.25 75.38 250.68 211.65 196.92 279.01"/>
    <polyline class="cls-5" points="227.45 132.93 194.44 277.71 71.91 245.66 32.68 93.15"/>
    <circle class="cls-3" cx="32.68" cy="91.27" r="15.88"/>
    <circle class="cls-3" cx="140.58" cy="30.15" r="15.88"/>
    <circle class="cls-3" cx="227.45" cy="135.28" r="15.88"/>
    <circle class="cls-3" cx="130.07" cy="151.17" r="15.88"/>
    <circle class="cls-3" cx="71.91" cy="245.66" r="15.88"/>
    <circle class="cls-3" cx="280.25" cy="75.38" r="15.88"/>
    <circle class="cls-3" cx="194.44" cy="277.71" r="15.88"/>
    <circle class="cls-3" cx="254.47" cy="212.88" r="15.88"/>
    <g>
      <line class="cls-1" x1="168.79" y1="74.92" x2="163.37" y2="111.38"/>
      <line class="cls-1" x1="183.26" y1="86.5" x2="148.9" y2="99.81"/>
    </g>
  </g>
</svg>